<svg width="85" height="74" viewBox="0 0 85 74" fill="none" xmlns="http://www.w3.org/2000/svg">
<path d="M83.5 35.5C81.1 11.9 62 0.5 53 0.5C53.6667 1.5 54.6 4.2 53 7C70.5 11.5 74 28.1667 74.5 35.5C75.7 55.5743 61 66.031 53.5 67.5V37.25V13L44.5 19V73.5H57.5H61.5C77.5 66.5 84.1667 44.6667 83.5 35.5Z" fill="url(#paint0_linear_1_3)"/>
<path d="M34.5 73.5V7H50C52.4 4.6 51 1.66667 50 0.5H7.5L1.5 7H25.5V73.5H34.5Z" fill="url(#paint1_linear_1_3)"/>
<path d="M83.5 35.5C81.1 11.9 62 0.5 53 0.5C53.6667 1.5 54.6 4.2 53 7C70.5 11.5 74 28.1667 74.5 35.5C75.7 55.5743 61 66.031 53.5 67.5V37.25V13L44.5 19V73.5H57.5H61.5C77.5 66.5 84.1667 44.6667 83.5 35.5Z" stroke="#F8EEF7"/>
<path d="M34.5 73.5V7H50C52.4 4.6 51 1.66667 50 0.5H7.5L1.5 7H25.5V73.5H34.5Z" stroke="#F8EEF7"/>
<defs>
<linearGradient id="paint0_linear_1_3" x1="12.5" y1="1.70282e-06" x2="74" y2="63.5" gradientUnits="userSpaceOnUse">
<stop offset="0.385774" stop-color="#198C0A"/>
<stop offset="0.570001" stop-color="#F8EEF7"/>
<stop offset="0.749032" stop-color="#091092"/>
</linearGradient>
<linearGradient id="paint1_linear_1_3" x1="12.5" y1="1.70282e-06" x2="74" y2="63.5" gradientUnits="userSpaceOnUse">
<stop offset="0.385774" stop-color="#198C0A"/>
<stop offset="0.570001" stop-color="#F8EEF7"/>
<stop offset="0.749032" stop-color="#091092"/>
</linearGradient>
</defs>
</svg>
